HIERARCHY
ROOT root
{
	OFFSET 0.000000 0.000000 0.000000
	CHANNELS 6 Xposition Yposition Zposition Zrotation Yrotation Xrotation
	JOINT lhip
	{
		OFFSET 0.058581 -0.082280 -0.017664
		CHANNELS 3 Zrotation Yrotation Xrotation
		JOINT lknee
		{
			OFFSET 0.043451 -0.386469 0.008037
			CHANNELS 3 Zrotation Yrotation Xrotation
			JOINT lankle
			{
				OFFSET -0.014790 -0.426874 -0.037428
				CHANNELS 3 Zrotation Yrotation Xrotation
				JOINT ltoe
				{
					OFFSET 0.041054 -0.060286 0.122042
					CHANNELS 3 Zrotation Yrotation Xrotation
					End Site
					{
						OFFSET 0.000000 0.000000 0.000000
					}
				}
			}
		}
	}
	JOINT rhip
	{
		OFFSET -0.060310 -0.090513 -0.013543
		CHANNELS 3 Zrotation Yrotation Xrotation
		JOINT rknee
		{
			OFFSET -0.043257 -0.383688 -0.004843
			CHANNELS 3 Zrotation Yrotation Xrotation
			JOINT rankle
			{
				OFFSET 0.019056 -0.420046 -0.034562
				CHANNELS 3 Zrotation Yrotation Xrotation
				JOINT rtoe
				{
					OFFSET -0.034840 -0.062106 0.130323
					CHANNELS 3 Zrotation Yrotation Xrotation
					End Site
					{
						OFFSET 0.000000 0.000000 0.000000
					}
				}
			}
		}
	}
	JOINT lowerback
	{
		OFFSET 0.004439 0.124404 -0.038385
		CHANNELS 3 Zrotation Yrotation Xrotation
		JOINT upperback
		{
			OFFSET 0.004488 0.137956 0.026820
			CHANNELS 3 Zrotation Yrotation Xrotation
			JOINT chest
			{
				OFFSET -0.002265 0.056032 0.002855
				CHANNELS 3 Zrotation Yrotation Xrotation
				JOINT lowerneck
				{
					OFFSET -0.013390 0.211636 -0.033468
					CHANNELS 3 Zrotation Yrotation Xrotation
					JOINT upperneck
					{
						OFFSET 0.010113 0.088937 0.050410
						CHANNELS 3 Zrotation Yrotation Xrotation
						End Site
						{
							OFFSET 0.000000 0.000000 0.000000
						}
					}
				}
				JOINT lclavicle
				{
					OFFSET 0.071702 0.114000 -0.018898
					CHANNELS 3 Zrotation Yrotation Xrotation
					JOINT lshoulder
					{
						OFFSET 0.122921 0.045205 -0.019046
						CHANNELS 3 Zrotation Yrotation Xrotation
						JOINT lelbow
						{
							OFFSET 0.255332 -0.015649 -0.022946
							CHANNELS 3 Zrotation Yrotation Xrotation
							JOINT lwrist
							{
								OFFSET 0.265709 0.012698 -0.007375
								CHANNELS 3 Zrotation Yrotation Xrotation
								End Site
								{
									OFFSET 0.000000 0.000000 0.000000
								}
							}
						}
					}
				}
				JOINT rclavicle
				{
					OFFSET -0.082954 0.112472 -0.023707
					CHANNELS 3 Zrotation Yrotation Xrotation
					JOINT rshoulder
					{
						OFFSET -0.113228 0.046853 -0.008472
						CHANNELS 3 Zrotation Yrotation Xrotation
						JOINT relbow
						{
							OFFSET -0.260127 -0.014369 -0.031269
							CHANNELS 3 Zrotation Yrotation Xrotation
							JOINT rwrist
							{
								OFFSET -0.269108 0.006794 -0.006027
								CHANNELS 3 Zrotation Yrotation Xrotation
								End Site
								{
									OFFSET 0.000000 0.000000 0.000000
								}
							}
						}
					}
				}
			}
		}
	}
}
MOTION
Frames: 16
Frame Time: 0.033333
0.488759 0.200074 0.983829 89.609869 3.900609 95.993640 8.022492 5.070216 -3.541198 3.572854 -0.474268 -8.256680 -1.842648 10.116733 -2.200406 0.000000 -0.000000 0.000000 -3.440343 -3.377727 -7.748125 -1.196448 0.796856 0.144296 6.803469 -5.446650 -1.985759 0.000000 -0.000000 0.000000 -0.110374 1.993034 -1.976446 3.773045 -2.557998 1.959752 0.583954 1.902577 -8.844610 0.469511 -2.628912 4.119721 2.232572 -3.082315 6.493692 -23.526217 1.958128 -1.831927 -61.131418 -4.902559 25.420102 5.445100 -15.324667 12.818248 -6.012914 -9.362422 10.607525 25.412889 2.542748 2.003876 53.352165 7.099444 17.777659 -4.282413 11.497123 1.624878 3.436857 2.411251 2.566868 
0.487652 0.199883 0.983164 89.437263 3.864787 96.092552 7.968446 5.001912 -3.793742 3.584158 -0.365908 -8.105304 -1.839585 10.275543 -2.119453 0.000000 -0.000000 0.000000 -3.498961 -3.123294 -8.115686 -1.194517 0.764256 0.399512 6.922156 -5.533115 -1.928725 0.000000 -0.000000 0.000000 0.000048 1.788394 -1.390982 3.513681 -2.244145 0.863753 0.669344 1.892950 -8.353010 0.541771 -2.560504 4.009203 2.276053 -3.104471 6.546381 -23.186150 1.890082 -1.851118 -61.377796 -4.798343 25.288839 5.484791 -15.440106 13.262186 -6.033895 -9.434182 10.099532 25.348300 2.713560 2.114101 53.488683 7.194384 17.661510 -4.283746 11.471389 1.801334 3.424684 2.516567 2.431967 
0.487751 0.199704 0.982925 89.437837 3.908371 96.154266 8.023375 5.003838 -3.861079 3.566353 -0.392283 -8.115446 -1.904207 10.315599 -2.089006 0.000000 -0.000000 0.000000 -3.434245 -2.989228 -8.122160 -1.221532 0.771082 0.272771 6.913525 -5.602057 -1.934574 0.000000 -0.000000 0.000000 0.033882 1.707700 -1.387013 3.489304 -2.195934 0.650215 0.718987 1.871873 -8.234756 0.544422 -2.505974 4.119421 2.379304 -3.160050 6.447845 -23.008786 1.901775 -1.819892 -61.529666 -4.812962 25.287554 5.433477 -15.457494 13.523085 -6.249660 -9.431954 9.777614 25.265449 2.807368 2.136407 53.497557 7.340809 17.740477 -4.139782 11.226716 2.128205 3.767206 2.526739 2.171356 
0.488600 0.199141 0.982851 89.692079 3.980408 96.362065 8.173935 4.979323 -4.087584 3.487798 -0.634875 -8.134557 -2.123642 10.403181 -2.114818 0.000000 -0.000000 0.000000 -3.146099 -2.895767 -7.994222 -1.393585 0.865418 -0.244418 6.617538 -5.792740 -2.081834 0.000000 -0.000000 0.000000 0.171455 1.691026 -1.388136 3.368673 -2.155449 0.469110 0.681937 1.526372 -8.514281 0.802707 -2.473939 4.247996 2.393418 -3.204918 6.484652 -22.776718 2.375518 -1.882586 -61.498484 -4.821668 25.293277 5.021380 -15.615494 14.520821 -6.552395 -9.312393 9.203173 25.461478 2.519796 2.000560 53.296743 7.739753 18.075940 -3.573545 10.471935 3.248991 4.858631 2.530900 1.729859 
0.488802 0.199133 0.982715 89.758368 3.971644 96.406130 8.181332 4.960507 -4.134855 3.464457 -0.668365 -8.135680 -2.117733 10.362322 -2.134941 0.000000 -0.000000 0.000000 -3.122888 -2.941981 -8.001770 -1.417549 0.854655 -0.285876 6.574887 -5.783344 -2.106183 0.000000 -0.000000 0.000000 0.159033 1.679377 -1.454210 3.370883 -2.208375 0.541220 0.680188 1.508187 -8.614804 0.819572 -2.496533 4.309554 2.448975 -3.269798 6.486870 -22.812942 2.337306 -1.810044 -61.492403 -4.831982 25.261779 5.073279 -15.598932 14.464939 -6.588508 -9.284477 9.180768 25.498537 2.529658 2.057453 53.299050 7.720988 18.054595 -3.626393 10.486440 3.270813 4.932419 2.510895 1.677024 
0.488983 0.199236 0.982420 89.756665 3.972189 96.378155 8.186066 4.973754 -4.083877 3.456297 -0.692042 -8.163503 -2.100662 10.342086 -2.187414 0.000000 -0.000000 0.000000 -3.105280 -2.942705 -7.949679 -1.447472 0.858150 -0.344326 6.527105 -5.774860 -2.082444 0.000000 -0.000000 0.000000 0.200978 1.679596 -1.361977 3.344351 -2.221334 0.504183 0.671042 1.512788 -8.665539 0.787330 -2.559143 4.355604 2.537136 -3.344468 6.454509 -22.887096 2.229192 -1.729254 -61.488447 -4.847444 25.230682 5.182220 -15.546823 14.419446 -6.679493 -9.277694 9.107658 25.489678 2.622149 2.094400 53.284365 7.742709 18.071133 -3.593315 10.418189 3.464433 5.266994 2.437624 1.529137 
0.489108 0.199289 0.982179 89.751169 3.967577 96.371079 8.193127 4.972803 -4.057886 3.443655 -0.714711 -8.181205 -2.089767 10.333674 -2.204553 0.000000 -0.000000 0.000000 -3.099245 -2.937814 -7.922842 -1.468427 0.850803 -0.393226 6.539904 -5.779953 -2.065231 0.000000 -0.000000 0.000000 0.198234 1.682474 -1.294241 3.346734 -2.235875 0.439617 0.685509 1.533580 -8.698461 0.745631 -2.595997 4.457539 2.633161 -3.407078 6.422566 -22.939750 2.149383 -1.666377 -61.494446 -4.863234 25.226900 5.247629 -15.519948 14.402307 -6.727859 -9.237399 9.032090 25.473900 2.676075 2.125515 53.290502 7.721058 18.072967 -3.612026 10.398091 3.532504 5.409570 2.385493 1.397834 
0.489196 0.199338 0.982022 89.742069 3.963500 96.386630 8.189460 4.979676 -4.057186 3.436389 -0.716559 -8.206212 -2.050305 10.317752 -2.212638 0.000000 -0.000000 0.000000 -3.098099 -2.944317 -7.949105 -1.484208 0.842553 -0.389687 6.563206 -5.761745 -2.049610 0.000000 -0.000000 0.000000 0.197788 1.701655 -1.300250 3.353172 -2.270080 0.442206 0.676645 1.559280 -8.741247 0.733502 -2.588247 4.576420 2.756595 -3.497861 6.329371 -22.904390 2.095339 -1.633312 -61.556511 -4.866944 25.222858 5.312088 -15.656166 14.360397 -6.904381 -8.997896 9.138093 25.468890 2.713939 2.171204 53.318085 7.674335 18.021187 -3.681659 10.439473 3.498786 5.504845 2.327007 1.438241 
0.489140 0.199401 0.981850 89.743849 3.948949 96.418234 8.170831 4.977422 -4.082679 3.441433 -0.719469 -8.235496 -2.044406 10.307397 -2.215273 0.000000 -0.000000 0.000000 -3.114209 -2.925129 -7.991748 -1.495909 0.795263 -0.381306 6.585342 -5.754444 -2.028060 0.000000 -0.000000 0.000000 0.188618 1.692159 -1.261114 3.339921 -2.246971 0.359746 0.689466 1.563088 -8.767693 0.732902 -2.604876 4.661170 2.883521 -3.577932 6.310781 -22.861771 2.072002 -1.597862 -61.634210 -4.891809 25.212997 5.300205 -15.443129 14.341053 -6.746011 -9.244525 8.972302 25.439825 2.713805 2.222986 53.350927 7.661286 18.003389 -3.657003 10.446962 3.496944 5.338077 2.403528 1.293949 
0.489142 0.199409 0.981842 89.747355 3.947629 96.423625 8.171137 4.982214 -4.103045 3.438011 -0.715202 -8.204113 -2.043693 10.304728 -2.237457 0.000000 -0.000000 0.000000 -3.110835 -2.918075 -7.992991 -1.499746 0.805183 -0.394855 6.587726 -5.747113 -2.032530 0.000000 -0.000000 0.000000 0.182014 1.687438 -1.221098 3.346774 -2.239369 0.287789 0.703785 1.555377 -8.743576 0.734749 -2.623633 4.684869 2.876055 -3.578190 6.347111 -22.865798 2.089498 -1.609037 -61.649666 -4.891278 25.230816 5.297712 -15.432292 14.398259 -6.722609 -9.240287 8.969278 25.432291 2.682330 2.226485 53.361974 7.676794 18.003289 -3.653017 10.439570 3.505665 5.321911 2.402412 1.279645 
0.489136 0.199448 0.981844 89.755040 3.955787 96.429539 8.178430 4.989647 -4.102192 3.439617 -0.714975 -8.216432 -2.058931 10.289134 -2.218954 0.000000 -0.000000 0.000000 -3.107081 -2.925272 -7.987207 -1.489524 0.809485 -0.416752 6.601195 -5.735340 -2.007875 0.000000 -0.000000 0.000000 0.198743 1.682482 -1.162491 3.342757 -2.237857 0.134873 0.717158 1.536166 -8.676658 0.743955 -2.628078 4.695911 2.903600 -3.579340 6.349470 -22.833640 2.099003 -1.612835 -61.681204 -4.876007 25.252516 5.292874 -15.427418 14.455414 -6.702727 -9.278354 8.896960 25.417277 2.684426 2.235064 53.378717 7.666004 18.039447 -3.643056 10.428558 3.554581 5.290305 2.425791 1.233044 
0.489163 0.199487 0.981846 89.749731 3.951603 96.427631 8.186204 4.982180 -4.075369 3.424044 -0.707044 -8.249706 -2.062884 10.283905 -2.214728 0.000000 -0.000000 0.000000 -3.105606 -2.925803 -7.975346 -1.503245 0.794396 -0.438962 6.612692 -5.737008 -1.989174 0.000000 -0.000000 0.000000 0.197389 1.686955 -1.140957 3.336618 -2.232561 0.098909 0.729319 1.534085 -8.671879 0.754685 -2.646657 4.721885 2.909042 -3.579532 6.378785 -22.819705 2.084608 -1.566335 -61.676651 -4.879385 25.227302 5.291859 -15.455745 14.487468 -6.752896 -9.287720 8.845953 25.385356 2.700101 2.267814 53.421792 7.655691 18.056655 -3.653383 10.421605 3.614518 5.287879 2.427934 1.224006 
0.489210 0.199509 0.981869 89.776544 3.944754 96.410353 8.194512 4.983667 -4.055567 3.394448 -0.724726 -8.246349 -2.045543 10.287518 -2.233599 0.000000 -0.000000 0.000000 -3.102955 -2.940932 -7.942466 -1.522751 0.778570 -0.443082 6.635757 -5.775285 -1.988106 0.000000 -0.000000 0.000000 0.190082 1.688494 -1.110180 3.334962 -2.240727 0.064835 0.734649 1.534242 -8.681701 0.759768 -2.680683 4.738116 2.901507 -3.555320 6.476629 -22.836900 2.057603 -1.496340 -61.615092 -4.882862 25.182872 5.284888 -15.547857 14.484841 -6.810646 -9.142511 8.869743 25.351274 2.726325 2.302705 53.470343 7.612939 18.083157 -3.657420 10.434780 3.670047 5.310455 2.414221 1.271157 
0.489272 0.199504 0.981909 89.774464 3.958244 96.395296 8.203789 4.963379 -4.036962 3.412730 -0.720708 -8.241658 -2.038957 10.300568 -2.232472 0.000000 -0.000000 0.000000 -3.091733 -2.932029 -7.912745 -1.523540 0.796845 -0.465025 6.627100 -5.787956 -1.974765 0.000000 -0.000000 0.000000 0.201582 1.707124 -1.111974 3.339547 -2.247956 0.040272 0.734037 1.530421 -8.661102 0.763406 -2.752602 4.752436 2.903499 -3.590492 6.538573 -22.816250 2.049316 -1.487536 -61.623378 -4.904106 25.205907 5.283607 -15.477315 14.528858 -6.823031 -9.213067 8.869367 25.314954 2.756131 2.325026 53.502817 7.628931 18.122839 -3.651787 10.388847 3.716250 5.319849 2.439088 1.234492 
0.489344 0.199505 0.981935 89.771392 3.966162 96.391405 8.216598 4.956198 -4.028240 3.404283 -0.703153 -8.238415 -2.041739 10.289075 -2.235500 0.000000 -0.000000 0.000000 -3.081753 -2.950746 -7.894734 -1.518939 0.787296 -0.477021 6.625279 -5.775528 -1.954679 0.000000 -0.000000 0.000000 0.201383 1.716878 -1.113240 3.350371 -2.265543 0.013343 0.749861 1.529231 -8.649720 0.750401 -2.796499 4.814487 2.901388 -3.620960 6.519249 -22.775670 2.025629 -1.466709 -61.649904 -4.896684 25.223240 5.250472 -15.456718 14.531310 -6.796156 -9.252546 8.814530 25.265400 2.793208 2.347941 53.515464 7.649957 18.123355 -3.621595 10.370859 3.694096 5.330196 2.440054 1.135322 
0.489451 0.199558 0.981946 89.779755 3.974267 96.390199 8.229127 4.962288 -4.010532 3.393147 -0.710628 -8.257620 -2.054973 10.283654 -2.225638 0.000000 -0.000000 0.000000 -3.075860 -2.957599 -7.881760 -1.516920 0.791040 -0.486630 6.652750 -5.766134 -1.957574 0.000000 -0.000000 0.000000 0.228636 1.704364 -1.084817 3.341993 -2.279870 -0.100763 0.751201 1.540810 -8.607001 0.754143 -2.808730 4.870453 2.886127 -3.584900 6.552733 -22.745970 2.041204 -1.462038 -61.647975 -4.856293 25.244617 5.205574 -15.481925 14.602397 -6.746671 -9.247905 8.760718 25.236850 2.785169 2.351005 53.524368 7.657015 18.135032 -3.603711 10.366113 3.715592 5.351136 2.456317 1.056091 
